<?xml version="1.0" encoding="UTF-8" standalone="no"?>
<svg
   id="a"
   viewBox="0 0 574882.42 363982.94"
   version="1.1"
   width="574882.44"
   height="363982.94"
   xmlns="http://www.w3.org/2000/svg"
   xmlns:svg="http://www.w3.org/2000/svg">
  <defs
     id="defs1">
    <style
       id="style1">.b{fill:none;stroke:#fff;stroke-linecap:round;stroke-miterlimit:10;stroke-width:10px;}</style>
  </defs>
  <path
     class="b"
     d="m 563.58515,463.74 c 0,0 35.84,-26.32 112.12,-7.3 76.29,19.02 97.41,92.78 55.73,125.47 -41.68,32.69 -171.92,6.44 -171.92,6.44 L 8.5551523,487.35"
     id="path1" />
  <path
     class="b"
     d="m 532.8,253.17 c 0,0 29.49,-32.63 106.15,-28.42 76.66,4.21 110.57,72.63 76.66,112.63 -33.91,40 -163.65,38.92 -163.65,38.92 L 5,381.59"
     id="path2" />
  <path
     class="b"
     d="m 526.08,47.54 c 0,0 25.84,-36.24 104.46,-42.16 78.62,-5.92 121.93,57.48 92.52,101.61 -29.41,44.14 -161.68,60.15 -161.68,60.15 L 5,244.4"
     id="path3" />
</svg>
